<svg width="750" height="750" viewBox="0 0 750 750" fill="none" xmlns="http://www.w3.org/2000/svg">
<rect width="750" height="750" fill="white"/>
<path d="M543.514 304.36C540.941 306.358 495.528 331.976 495.528 388.942C495.528 454.831 553.315 478.141 555.044 478.718C554.778 480.139 545.864 510.642 524.577 541.722C505.595 569.072 485.771 596.378 455.614 596.378C425.457 596.378 417.696 578.84 382.882 578.84C348.955 578.84 336.892 596.956 309.307 596.956C281.722 596.956 262.475 571.648 240.345 540.568C214.711 504.071 194 447.372 194 393.559C194 307.246 250.057 261.469 305.227 261.469C334.542 261.469 358.978 280.739 377.383 280.739C394.901 280.739 422.219 260.315 455.57 260.315C468.209 260.315 513.622 261.469 543.514 304.36ZM439.737 223.774C453.53 207.39 463.286 184.657 463.286 161.924C463.286 158.772 463.02 155.575 462.444 153C440.003 153.844 413.305 167.963 397.207 186.655C384.567 201.041 372.77 223.774 372.77 246.817C372.77 250.28 373.347 253.744 373.613 254.854C375.032 255.12 377.338 255.431 379.644 255.431C399.779 255.431 425.102 241.933 439.737 223.774Z" fill="black"/>
</svg>
